<?xml version="1.0" standalone="no"?>
<!DOCTYPE svg PUBLIC "-//W3C//DTD SVG 20010904//EN"
 "http://www.w3.org/TR/2001/REC-SVG-20010904/DTD/svg10.dtd">
<svg version="1.0" xmlns="http://www.w3.org/2000/svg"
 width="400.000000pt" height="400.000000pt" viewBox="0 0 400.000000 400.000000"
 preserveAspectRatio="xMidYMid meet">
<metadata>
Created by potrace 1.14, written by Peter Selinger 2001-2017
</metadata>
<g transform="translate(0.000000,400.000000) scale(0.100000,-0.100000)"
fill="#000000" stroke="none">
<path d="M0 2000 l0 -2000 2000 0 2000 0 0 2000 0 2000 -2000 0 -2000 0 0
-2000z m2025 1869 c30 -11 69 -32 87 -47 26 -22 45 -28 109 -33 169 -15 288
-105 385 -294 119 -230 131 -283 144 -655 5 -157 12 -296 15 -310 2 -14 7 -65
10 -115 4 -49 9 -93 11 -97 3 -4 12 -54 20 -110 9 -57 20 -108 25 -114 5 -6 7
-13 4 -15 -2 -3 1 -25 6 -49 11 -48 13 -66 24 -197 l7 -83 -48 0 c-49 -1 -139
-17 -227 -42 -46 -13 -47 -14 -32 -36 25 -34 6 -26 -34 16 -32 32 -39 49 -55
132 -11 52 -22 100 -25 105 -3 6 -4 18 -3 28 2 9 -1 17 -6 17 -4 0 -8 15 -8
33 0 69 -4 104 -16 120 -12 16 -13 14 -15 -10 -4 -73 42 -309 82 -428 29 -83
65 -142 49 -80 -8 33 7 32 47 -4 38 -35 45 -30 -136 -96 -302 -110 -374 -128
-503 -123 -91 3 -116 8 -163 31 l-56 26 -6 68 c-6 60 -4 70 15 90 25 27 30 24
52 -22 13 -27 22 -35 36 -30 12 4 22 -1 29 -12 9 -17 10 -17 17 1 4 10 2 33
-5 50 -10 27 -9 33 7 46 27 22 192 220 192 230 0 5 17 19 38 31 20 13 61 45
90 73 29 27 55 46 59 42 4 -3 1 -12 -5 -18 -15 -15 -16 -32 -2 -23 6 3 10 1
10 -5 0 -16 18 -2 30 23 11 21 11 21 -4 3 -9 -11 -19 -17 -22 -13 -4 4 -1 13
6 22 7 8 10 15 7 15 -4 0 11 17 33 38 22 21 45 53 51 72 7 19 23 49 35 67 30
45 50 107 74 233 23 121 24 128 10 114 -5 -5 -19 -52 -30 -104 -24 -117 -50
-195 -83 -246 -36 -56 -213 -233 -277 -276 -79 -54 -171 -75 -257 -59 -36 7
-78 18 -92 25 -44 23 -227 208 -263 266 -19 30 -43 75 -52 100 -16 41 -55 175
-56 192 0 4 26 -5 58 -19 83 -37 146 -28 234 31 32 21 76 106 81 156 4 34 6
35 50 38 54 4 87 -11 87 -38 0 -37 11 -50 31 -39 22 11 26 31 5 23 -7 -3 -16
3 -20 12 -8 22 2 33 14 14 8 -13 10 -12 10 2 0 9 -5 18 -12 20 -10 4 -10 13 0
45 17 59 45 88 110 118 46 21 67 26 105 21 26 -3 56 -11 67 -19 17 -12 14 -13
-35 -9 -66 5 -129 -22 -162 -70 -32 -45 -19 -48 23 -4 19 20 40 34 45 30 5 -3
7 -9 4 -14 -9 -14 16 -57 39 -68 18 -9 16 -11 -19 -12 -35 -2 -37 -3 -15 -10
40 -13 123 -10 155 5 30 14 30 14 -14 8 l-45 -6 22 28 c12 15 22 34 22 41 0
19 24 18 40 -1 7 -8 19 -15 26 -15 34 0 45 -101 18 -166 -19 -47 -75 -99 -122
-115 -19 -6 -59 -9 -88 -7 -63 5 -124 43 -161 97 -16 24 -23 29 -23 16 0 -25
92 -115 118 -115 11 0 24 -4 27 -10 9 -15 91 -12 132 5 95 40 144 109 148 210
2 33 3 64 4 68 1 9 87 47 107 47 9 0 14 -11 14 -32 0 -18 5 -40 10 -48 9 -13
11 -13 20 0 5 8 12 32 15 52 8 46 28 68 60 68 13 0 27 5 30 10 13 21 43 10 55
-20 11 -27 11 -32 -6 -44 -16 -12 -17 -17 -5 -42 8 -17 16 -24 18 -16 6 17 23
15 23 -2 0 -8 3 -17 8 -19 4 -3 8 17 9 45 1 34 -3 55 -15 68 -9 10 -25 30 -35
44 -11 17 -23 23 -34 19 -12 -5 -15 -2 -10 10 3 9 2 17 -3 17 -5 0 0 19 10 43
24 52 25 104 4 157 -22 55 -26 46 -9 -19 12 -45 12 -59 -1 -102 -9 -30 -20
-49 -27 -46 -7 2 -17 -9 -24 -25 -12 -27 -33 -39 -33 -17 0 6 -8 22 -19 35
l-18 24 4 -44 c5 -39 2 -45 -23 -63 -26 -18 -120 -53 -142 -53 -4 0 -29 19
-53 43 -26 25 -63 48 -88 56 -48 14 -129 7 -171 -14 -40 -21 -90 -79 -105
-121 -9 -24 -19 -37 -27 -35 -7 3 -39 5 -71 6 -58 2 -59 2 -77 42 -10 22 -23
44 -29 47 -6 4 -11 12 -11 17 0 6 17 -3 37 -20 36 -29 103 -45 88 -21 -4 6
-16 8 -28 5 -12 -2 -17 -2 -10 1 9 4 1 21 -22 56 -31 45 -41 73 -36 102 4 19
-10 56 -20 56 -18 0 -2 -75 28 -136 14 -30 30 -54 35 -54 4 0 8 -4 8 -10 0
-18 -20 -10 -49 20 -19 21 -31 27 -34 18 -3 -10 -9 -9 -24 4 -27 24 -98 48
-144 48 -31 0 -37 3 -32 16 6 17 48 14 136 -11 26 -8 47 -12 47 -11 0 14 -29
55 -32 46 -2 -8 -16 -9 -48 -1 -98 22 -110 22 -110 2 0 -30 -11 -51 -25 -51
-8 0 -34 -16 -59 -35 l-46 -35 0 43 c0 31 -3 38 -10 27 -8 -13 -10 -13 -10 2
0 9 6 21 13 25 6 4 19 20 27 34 15 27 86 109 94 109 2 0 1 -15 -4 -32 -19 -76
-20 -96 -3 -102 12 -5 14 -1 10 20 -4 25 9 100 31 174 11 35 11 35 -6 10 -9
-13 -51 -65 -92 -115 -87 -103 -110 -137 -110 -162 0 -33 -18 2 -24 46 -3 24
-9 47 -12 50 -9 8 2 -98 12 -123 7 -19 7 -19 -15 0 -12 10 -40 36 -61 58 -47
46 -59 99 -40 176 7 28 10 54 7 56 -3 3 -19 -18 -36 -48 -43 -74 -39 -35 4 47
20 37 31 64 25 60 -14 -8 -13 11 5 96 17 81 69 197 126 281 22 31 39 59 39 62
0 7 21 32 80 98 80 90 216 167 364 208 38 11 70 21 72 23 2 1 37 4 78 5 56 2
89 -3 131 -19z m732 -761 c-3 -7 -5 -2 -5 12 0 14 2 19 5 13 2 -7 2 -19 0 -25z
m-191 -284 c-3 -9 -6 -18 -6 -20 0 -2 -7 -4 -15 -4 -18 0 -19 12 -3 28 17 17
31 15 24 -4z m-1066 -4 c0 -5 -7 -10 -16 -10 -8 0 -12 5 -9 10 3 6 10 10 16
10 5 0 9 -4 9 -10z m-187 -57 c-12 -31 -38 -5 -28 28 6 19 8 19 20 3 7 -10 11
-24 8 -31z m149 37 c2 -6 17 -6 40 2 103 31 240 -99 199 -189 -6 -14 -9 -40
-5 -59 5 -30 1 -38 -43 -82 -51 -51 -79 -62 -163 -62 -35 0 -58 7 -92 30 -49
33 -57 51 -63 158 -3 44 -15 72 -15 36 -1 -17 -2 -17 -10 -2 -14 23 7 79 20
58 7 -11 10 -6 10 18 0 23 8 41 28 59 40 37 87 54 94 33z m-177 -147 c3 -79
15 -134 35 -158 6 -7 24 -64 41 -127 27 -107 92 -258 110 -258 5 0 15 -12 23
-28 8 -15 36 -50 64 -77 47 -48 50 -54 66 -140 9 -50 25 -122 36 -160 25 -87
26 -130 4 -121 -9 3 -30 6 -49 6 -23 0 -34 5 -37 18 -6 23 -149 72 -208 72
-41 0 -128 -22 -163 -41 -18 -10 -18 -4 -12 138 3 81 10 198 15 258 5 61 17
225 25 365 9 140 18 273 20 295 2 22 4 44 4 50 1 5 6 4 12 -2 6 -6 13 -47 14
-90z m865 77 c0 -5 -4 -10 -10 -10 -5 0 -10 5 -10 10 0 6 5 10 10 10 6 0 10
-4 10 -10z m-846 -15 c-4 -8 -8 -15 -10 -15 -2 0 -4 7 -4 15 0 8 4 15 10 15 5
0 7 -7 4 -15z m1364 -12 c-2 -10 -13 -19 -26 -21 -25 -4 -28 2 -9 23 17 20 39
18 35 -2z m-1348 -142 c0 -32 -6 -24 -14 19 -4 25 -3 31 4 20 5 -8 10 -26 10
-39z m1489 -81 c1 -13 0 -13 -9 0 -5 8 -9 24 -9 35 l0 20 9 -20 c5 -11 9 -27
9 -35z m-1129 -658 c0 -7 -4 -10 -10 -7 -5 3 -10 16 -10 28 0 18 2 19 10 7 5
-8 10 -21 10 -28z m20 -47 c0 -8 5 -14 12 -12 6 1 13 -7 15 -18 3 -19 3 -19
-5 -1 -18 43 -20 -4 -3 -62 15 -49 16 -63 6 -72 -10 -8 -14 4 -21 52 -4 35 -9
72 -9 84 -1 12 -5 26 -9 33 -4 6 -2 11 3 11 6 0 11 -7 11 -15z m57 -17 c-3 -8
-6 -5 -6 6 -1 11 2 17 5 13 3 -3 4 -12 1 -19z m-53 -255 c3 -25 5 -48 3 -50
-5 -4 -87 40 -87 47 0 6 62 48 71 49 4 1 9 -20 13 -46z"/>
<path d="M1407 3603 c-38 -27 -128 -157 -141 -203 -4 -14 6 -2 22 26 40 71 90
131 141 170 52 40 33 46 -22 7z"/>
<path d="M1221 3289 c-6 -18 -9 -34 -7 -36 2 -2 9 10 15 28 6 18 9 34 7 36 -2
2 -9 -10 -15 -28z"/>
<path d="M2400 3298 c0 -8 10 -23 22 -34 l21 -19 -18 30 c-26 41 -25 40 -25
23z"/>
<path d="M2181 3295 c1 -19 18 -51 18 -35 0 8 -4 22 -9 30 -5 8 -9 11 -9 5z"/>
<path d="M1240 3265 c-20 -24 -6 -28 15 -5 10 11 13 20 8 20 -6 0 -16 -7 -23
-15z"/>
<path d="M1190 3214 c-6 -15 -19 -37 -30 -51 -15 -19 -16 -28 -8 -37 9 -10 18
1 40 47 32 67 32 67 18 67 -6 0 -15 -12 -20 -26z"/>
<path d="M2211 3204 c0 -11 3 -14 6 -6 3 7 2 16 -1 19 -3 4 -6 -2 -5 -13z"/>
<path d="M1733 3189 c4 -13 7 -29 7 -34 0 -6 16 -35 35 -64 31 -50 114 -121
139 -121 6 0 28 -15 50 -33 l38 -33 -41 -16 c-50 -20 -56 -43 -9 -32 18 3 50
12 72 18 l40 12 -46 27 c-31 18 -60 47 -87 89 -23 35 -41 56 -41 48 0 -9 7
-25 15 -37 35 -50 -15 -30 -82 32 -26 24 -73 111 -73 136 0 10 -5 21 -12 25
-8 5 -9 0 -5 -17z"/>
<path d="M1570 3103 c0 -20 3 -33 6 -30 11 10 13 67 3 67 -5 0 -9 -16 -9 -37z"/>
<path d="M1581 3029 c0 -8 7 -30 14 -49 l13 -35 1 30 c0 17 -6 39 -14 49 -10
14 -15 15 -14 5z"/>
<path d="M1996 2998 c14 -25 94 -108 105 -108 5 0 18 -9 29 -20 11 -11 32 -22
47 -25 27 -5 27 -5 -4 12 -46 23 -41 37 10 30 24 -3 36 -2 27 3 -8 4 -39 11
-67 15 -57 7 -82 25 -36 25 24 1 21 4 -24 23 -28 12 -61 31 -74 42 -18 16 -20
17 -13 3z"/>
<path d="M1261 2979 c-7 -12 -10 -23 -8 -26 3 -3 11 5 17 17 15 28 8 35 -9 9z"/>
<path d="M1737 2955 c6 -41 21 -80 29 -73 2 3 -5 29 -16 59 -18 50 -19 51 -13
14z"/>
<path d="M2541 2960 c1 -8 5 -26 9 -40 l8 -25 1 25 c0 14 -4 32 -9 40 -9 13
-10 13 -9 0z"/>
<path d="M2198 2913 c7 -3 16 -2 19 1 4 3 -2 6 -13 5 -11 0 -14 -3 -6 -6z"/>
<path d="M2305 2890 c3 -5 13 -10 21 -10 8 0 27 -8 41 -17 18 -12 24 -13 19
-4 -5 7 -23 19 -42 27 -40 17 -47 17 -39 4z"/>
<path d="M2075 2870 c3 -5 14 -10 23 -10 15 0 15 2 2 10 -20 13 -33 13 -25 0z"/>
<path d="M1775 2850 c5 -17 4 -21 -6 -15 -8 5 -4 -3 8 -16 28 -31 73 -48 98
-38 20 7 20 8 0 8 -28 1 -85 38 -85 55 0 8 -5 18 -11 22 -8 4 -9 -1 -4 -16z"/>
<path d="M2551 2711 c-28 -38 -27 -42 9 -30 22 8 30 17 30 35 0 32 -14 30 -39
-5z"/>
<path d="M2513 2634 c-3 -9 0 -20 8 -24 18 -12 25 -4 11 13 -7 8 -9 17 -5 20
3 4 3 7 -1 7 -3 0 -9 -7 -13 -16z"/>
<path d="M2627 2633 c-4 -3 -7 -15 -7 -26 0 -13 5 -17 15 -13 20 7 19 -7 -6
-50 -53 -95 -111 -141 -144 -114 -10 8 -15 9 -15 2 0 -17 39 -34 64 -28 26 6
73 62 109 131 33 60 34 75 6 75 -15 0 -19 5 -15 15 6 16 3 19 -7 8z"/>
<path d="M1763 2565 c0 -22 2 -30 4 -17 2 12 2 30 0 40 -3 9 -5 -1 -4 -23z"/>
<path d="M1751 2514 c0 -6 -12 -27 -25 -47 -51 -75 -47 -114 19 -150 50 -28
57 -24 20 12 -35 32 -41 65 -20 110 9 21 15 49 12 62 -2 13 -5 19 -6 13z"/>
<path d="M1858 2353 c-10 -3 -18 -9 -18 -15 0 -5 7 -7 16 -4 9 3 27 6 41 6 15
0 24 2 21 5 -8 8 -41 12 -60 8z"/>
<path d="M2761 2214 c0 -11 3 -14 6 -6 3 7 2 16 -1 19 -3 4 -6 -2 -5 -13z"/>
<path d="M2028 2190 c-34 -20 -220 -34 -298 -22 -69 10 -91 9 -78 -3 2 -3 40
-10 83 -15 60 -8 106 -6 199 6 125 16 136 19 136 35 0 12 -20 11 -42 -1z"/>
<path d="M2410 2183 c1 -13 29 -59 30 -48 0 21 -13 55 -21 55 -5 0 -9 -3 -9
-7z"/>
<path d="M2772 2140 c0 -14 2 -19 5 -12 2 6 2 18 0 25 -3 6 -5 1 -5 -13z"/>
<path d="M2045 2101 c-3 -5 -1 -12 5 -16 5 -3 10 1 10 9 0 18 -6 21 -15 7z"/>
<path d="M2771 2094 c0 -11 3 -14 6 -6 3 7 2 16 -1 19 -3 4 -6 -2 -5 -13z"/>
<path d="M1803 2053 c30 -3 37 -8 33 -20 -5 -12 -1 -14 21 -8 16 3 35 13 43
21 12 12 5 14 -60 12 -42 -1 -58 -3 -37 -5z"/>
<path d="M2782 2000 c0 -19 2 -27 5 -17 2 9 2 25 0 35 -3 9 -5 1 -5 -18z"/>
<path d="M2781 1934 c0 -11 3 -14 6 -6 3 7 2 16 -1 19 -3 4 -6 -2 -5 -13z"/>
<path d="M1435 2757 c-17 -14 -39 -26 -50 -29 -19 -4 -19 -4 2 -16 19 -10 27
-8 59 13 41 28 77 34 68 11 -9 -23 22 -84 48 -92 22 -7 22 -7 3 -15 -17 -6
-15 -8 10 -8 27 0 82 17 61 18 -5 1 -1 10 10 22 17 18 17 23 4 46 -26 45 -65
66 -127 70 -50 4 -62 1 -88 -20z m174 -56 c-15 -5 -22 6 -14 19 6 9 10 9 16
-1 5 -8 4 -15 -2 -18z"/>
<path d="M1464 2635 c11 -8 29 -15 40 -15 25 0 19 4 -24 18 -32 11 -33 10 -16
-3z"/>
</g>
</svg>
